<svg xmlns="http://www.w3.org/2000/svg" version="1.1" xmlns:xlink="http://www.w3.org/1999/xlink" xmlns:svgjs="http://svgjs.com/svgjs" width="1440" height="560" preserveAspectRatio="none" viewBox="0 0 1440 560"><g mask="url(&quot;#SvgjsMask1007&quot;)" fill="none"><rect width="1440" height="560" x="0" y="0" fill="rgba(255, 255, 255, 1)"></rect><path d="M0 0L14.93 0L0 132.62z" fill="rgba(255, 255, 255, .1)"></path><path d="M0 132.62L14.93 0L758.39 0L0 173.91z" fill="rgba(255, 255, 255, .075)"></path><path d="M0 173.91L758.39 0L1072.85 0L0 337.78z" fill="rgba(255, 255, 255, .05)"></path><path d="M0 337.78L1072.85 0L1210.61 0L0 433.95z" fill="rgba(255, 255, 255, .025)"></path><path d="M1440 560L908.68 560L1440 468.96z" fill="rgba(0, 0, 0, .1)"></path><path d="M1440 468.96L908.68 560L713.6899999999999 560L1440 213.83999999999997z" fill="rgba(0, 0, 0, .075)"></path><path d="M1440 213.83999999999997L713.6899999999999 560L417.69999999999993 560L1440 117.38999999999997z" fill="rgba(0, 0, 0, .05)"></path><path d="M1440 117.38999999999999L417.69999999999993 560L235.57999999999993 560L1440 41.27999999999999z" fill="rgba(0, 0, 0, .025)"></path></g><defs><mask id="SvgjsMask1007"><rect width="1440" height="560" fill="#ffffff"></rect></mask></defs></svg>